{
  "accessors": [
    {
      "bufferView": 1,
      "componentType": 5126,
      "count": 927,
      "max": [
        0.61758702993392944,
        0.31228473782539368,
        0.56753033399581909
      ],
      "min": [
        -0.49914407730102539,
        -3.9996910095214844,
        -0.54913616180419922
      ],
      "type": "VEC3"
    },
    {
      "bufferView": 1,
      "byteOffset": 11124,
      "componentType": 5126,
      "count": 927,
      "max": [
        0.9998968243598938,
        1,
        0.99991285800933838
      ],
      "min": [
        -0.9998968243598938,
        -1,
        -0.99991285800933838
      ],
      "type": "VEC3"
    },
    {
      "bufferView": 2,
      "componentType": 5126,
      "count": 927,
      "max": [
        1,
        0.99886679649353027,
        0.99999958276748657,
        1
      ],
      "min": [
        -0.9999995231628418,
        -0.99999761581420898,
        -0.99999964237213135,
        -1
      ],
      "type": "VEC4"
    },
    {
      "bufferView": 0,
      "componentType": 5125,
      "count": 4704,
      "max": [
        926
      ],
      "min": [
        0
      ],
      "type": "SCALAR"
    },
    {
      "bufferView": 1,
      "byteOffset": 22248,
      "componentType": 5126,
      "count": 6627,
      "max": [
        1.282833456993103,
        1.2994205951690674,
        1.2062157392501831
      ],
      "min": [
        -1.2356181144714355,
        -0.011922660283744335,
        -1.3193273544311523
      ],
      "type": "VEC3"
    },
    {
      "bufferView": 1,
      "byteOffset": 101772,
      "componentType": 5126,
      "count": 6627,
      "max": [
        0.9952276349067688,
        0.99522745609283447,
        1
      ],
      "min": [
        -0.99862051010131836,
        -0.99981540441513062,
        -1
      ],
      "type": "VEC3"
    },
    {
      "bufferView": 2,
      "byteOffset": 14832,
      "componentType": 5126,
      "count": 6627,
      "max": [
        0.99993258714675903,
        0.40758806467056274,
        1,
        1
      ],
      "min": [
        -0.9999355673789978,
        -0.47687250375747681,
        -1,
        1
      ],
      "type": "VEC4"
    },
    {
      "bufferView": 0,
      "byteOffset": 18816,
      "componentType": 5125,
      "count": 74256,
      "max": [
        6626
      ],
      "min": [
        0
      ],
      "type": "SCALAR"
    }
  ],
  "asset": {
    "extras": {
      "author": "mcnubbin (https://sketchfab.com/mcnubbin)",
      "license": "CC-BY-4.0 (http://creativecommons.org/licenses/by/4.0/)",
      "source": "https://sketchfab.com/models/ffee96bc89d749cbbbbcd256eabb0bba",
      "title": "Simple Rose"
    },
    "generator": "Sketchfab-3.18.6",
    "version": "2.0"
  },
  "bufferViews": [
    {
      "buffer": 0,
      "byteLength": 315840,
      "byteOffset": 0,
      "name": "floatBufferViews",
      "target": 34963
    },
    {
      "buffer": 0,
      "byteLength": 181296,
      "byteOffset": 315840,
      "byteStride": 12,
      "name": "floatBufferViews",
      "target": 34962
    },
    {
      "buffer": 0,
      "byteLength": 120864,
      "byteOffset": 497136,
      "byteStride": 16,
      "name": "floatBufferViews",
      "target": 34962
    }
  ],
  "buffers": [
    {
      "byteLength": 618000,
      "uri": "scene.bin"
    }
  ],
  "materials": [
    {
      "doubleSided": true,
      "emissiveFactor": [
        0,
        0,
        0
      ],
      "name": "Green_Stem",
      "pbrMetallicRoughness": {
        "baseColorFactor": [
          0.012999999999999999,
          0.43980000000000002,
          0,
          1
        ],
        "metallicFactor": 0,
        "roughnessFactor": 0.59999999999999998
      }
    },
    {
      "doubleSided": true,
      "emissiveFactor": [
        0,
        0,
        0
      ],
      "name": "material",
      "pbrMetallicRoughness": {
        "baseColorFactor": [
          1,
          0,
          0,
          1
        ],
        "metallicFactor": 0,
        "roughnessFactor": 0.59999999999999998
      }
    }
  ],
  "meshes": [
    {
      "name": "pCylinder3_Green_Stem_0",
      "primitives": [
        {
          "attributes": {
            "NORMAL": 1,
            "POSITION": 0,
            "TANGENT": 2
          },
          "indices": 3,
          "material": 0,
          "mode": 4
        }
      ]
    },
    {
      "name": "pCylinder3_Red_0",
      "primitives": [
        {
          "attributes": {
            "NORMAL": 5,
            "POSITION": 4,
            "TANGENT": 6
          },
          "indices": 7,
          "material": 1,
          "mode": 4
        }
      ]
    }
  ],
  "nodes": [
    {
      "children": [
        1
      ],
      "name": "RootNode (gltf orientation matrix)",
      "rotation": [
        -0.70710678118654746,
        -0,
        -0,
        0.70710678118654757
      ]
    },
    {
      "children": [
        2
      ],
      "name": "RootNode (model correction matrix)"
    },
    {
      "children": [
        3
      ],
      "matrix": [
        1,
        0,
        0,
        0,
        0,
        0,
        1,
        0,
        0,
        -1,
        0,
        0,
        0,
        0,
        0,
        1
      ],
      "name": "e61f0bb39dde436bb7d372e5f18353c4.fbx"
    },
    {
      "children": [
        4
      ],
      "name": "RootNode"
    },
    {
      "children": [
        5,
        6
      ],
      "name": "pCylinder3"
    },
    {
      "mesh": 0,
      "name": "pCylinder3_Green_Stem_0"
    },
    {
      "mesh": 1,
      "name": "pCylinder3_Red_0"
    }
  ],
  "scene": 0,
  "scenes": [
    {
      "name": "OSG_Scene",
      "nodes": [
        0
      ]
    }
  ]
}

